<?xml version="1.0" encoding="UTF-8" standalone="no"?>
<svg
   xmlns:dc="http://purl.org/dc/elements/1.1/"
   xmlns:cc="http://creativecommons.org/ns#"
   xmlns:rdf="http://www.w3.org/1999/02/22-rdf-syntax-ns#"
   xmlns:svg="http://www.w3.org/2000/svg"
   xmlns="http://www.w3.org/2000/svg"
   xmlns:sodipodi="http://sodipodi.sourceforge.net/DTD/sodipodi-0.dtd"
   xmlns:inkscape="http://www.inkscape.org/namespaces/inkscape"
   height="140pt"
   viewBox="-16 0 464 140"
   width="464pt"
   version="1.1"
   id="svg22"
   sodipodi:docname="geo-use-cases.svg"
   inkscape:version="0.92.4 (5da689c313, 2019-01-14)">
  <metadata
     id="metadata28">
    <rdf:RDF>
      <cc:Work
         rdf:about="">
        <dc:format>image/svg+xml</dc:format>
        <dc:type
           rdf:resource="http://purl.org/dc/dcmitype/StillImage" />
        <dc:title />
      </cc:Work>
    </rdf:RDF>
  </metadata>
  <defs
     id="defs26" />
  <sodipodi:namedview
     pagecolor="#ffffff"
     bordercolor="#666666"
     borderopacity="1"
     objecttolerance="10"
     gridtolerance="10"
     guidetolerance="10"
     inkscape:pageopacity="0"
     inkscape:pageshadow="2"
     inkscape:window-width="1366"
     inkscape:window-height="713"
     id="namedview24"
     showgrid="false"
     inkscape:zoom="0.76293103"
     inkscape:cx="277.69877"
     inkscape:cy="86.3409"
     inkscape:window-x="0"
     inkscape:window-y="27"
     inkscape:window-maximized="1"
     inkscape:current-layer="svg22" />
  <path
     d="m 225.49731,121.74899 c -12.86335,-3.23781 -21.88677,-14.79492 -21.91003,-28.059332 0,-0.699086 0.0556,-1.382012 0.10507,-2.068972 H 160.139 v 4.137932 c 0,3.427737 2.77918,6.206902 6.2069,6.206902 h 35.17242 c 0.65767,-0.003 1.27796,0.30811 1.66991,0.83647 0.39299,0.52836 0.51018,1.21128 0.31621,1.84065 l -7.4606,24.21943 H 184.96656 V 133 h 53.79311 v -4.13793 h -11.07726 z m 0,0"
     id="path2"
     inkscape:connector-curvature="0"
     style="stroke-width:0.25862068" />
  <path
     d="m 166.34592,29.551727 c -3.42773,0 -6.20691,2.779166 -6.20691,6.206893 v 51.724136 h 6.20691 z m 0,0"
     id="path4"
     inkscape:connector-curvature="0"
     style="stroke-width:0.25862068" />
  <path
     d="m 217.20326,64.337224 c -0.75263,0.538446 -1.77194,0.511177 -2.49527,-0.06674 l -19.24098,-15.394995 -16.7073,16.70528 v 13.626069 h 28.75842 c 7.36159,-12.83 23.23949,-18.007474 36.74939,-11.983429 l -13.914,-12.279428 z m -32.84279,8.056641 -2.92564,-2.925659 8.27586,-8.275849 2.92564,2.925644 z m 10.34482,-10.344835 -2.92564,-2.925646 4.13793,-4.137931 2.92564,2.925645 z m 0,0"
     id="path6"
     inkscape:connector-curvature="0"
     style="stroke-width:0.25862068" />
  <path
     d="m 204.27426,87.482756 c 0.31519,-1.409281 0.73646,-2.792287 1.25976,-4.137932 h -28.84328 c -1.14257,0 -2.06895,-0.926388 -2.06895,-2.06896 V 35.75862 c 0,-1.142572 0.92638,-2.06896 2.06895,-2.06896 h 70.34482 c 1.14258,0 2.06897,0.926388 2.06897,2.06896 v 34.197541 c 1.48506,1.036504 2.87009,2.208378 4.13794,3.501475 V 29.551727 h -8.27586 c -4.57031,0 -8.27587,-3.705554 -8.27587,-8.275862 v -8.275863 h -62.06895 c -2.28516,0 -4.13794,1.852777 -4.13794,4.137932 V 87.482756 Z M 191.1735,17.137934 h 4.13795 v 4.137931 h -4.13795 z m -8.27586,0 h 4.13793 v 4.137931 h -4.13793 z m -8.27585,0 h 4.13792 v 4.137931 h -4.13792 z m 0,8.275863 h 57.93103 v 4.13793 h -57.93103 z m 0,0"
     id="path8"
     inkscape:connector-curvature="0"
     style="stroke-width:0.25862068" />
  <path
     d="m 244.96661,37.82759 h -66.2069 V 59.729532 L 193.84862,44.64063 c 0.74556,-0.745554 1.93259,-0.812229 2.75591,-0.152549 l 19.46728,15.574824 13.20985,-9.434607 c 0.78092,-0.558662 1.84268,-0.507131 2.566,0.124264 l 13.11895,11.56721 z m -28.96552,14.482755 c -2.28515,0 -4.13794,-1.852777 -4.13794,-4.137933 0,-2.285153 1.85279,-4.13793 4.13794,-4.13793 2.28516,0 4.13793,1.852777 4.13793,4.13793 0,2.285156 -1.85277,4.137933 -4.13793,4.137933 z m 0,0"
     id="path10"
     inkscape:connector-curvature="0"
     style="stroke-width:0.25862068" />
  <path
     d="m 232.55282,68.862071 c -13.71196,0 -24.82759,11.115633 -24.82759,24.827587 0,13.711942 11.11563,24.827582 24.82759,24.827582 13.71195,0 24.82757,-11.11564 24.82757,-24.827582 -0.0152,-13.705885 -11.12169,-24.812433 -24.82757,-24.827587 z m 0,45.517239 c -11.42679,0 -20.68967,-9.26286 -20.68967,-20.689652 0,-11.426789 9.26288,-20.689657 20.68967,-20.689657 11.42677,0 20.68965,9.262868 20.68965,20.689657 -0.0122,11.421732 -9.26792,20.677522 -20.68965,20.689652 z m 0,0"
     id="path12"
     inkscape:connector-curvature="0"
     style="stroke-width:0.25862068" />
  <path
     d="m 260.31615,101.87864 c 3.05292,-0.43037 5.32698,-3.036776 5.34011,-6.120022 V 35.75862 c 0,-3.427727 -2.77916,-6.206893 -6.2069,-6.206893 h -2.06897 v 49.295531 c 4.18845,6.917086 5.25526,15.283874 2.93576,23.031382 z m 0,0"
     id="path14"
     inkscape:connector-curvature="0"
     style="stroke-width:0.25862068" />
  <path
     d="m 232.55282,77.137932 c -9.14164,0 -16.55173,7.410092 -16.55173,16.551726 0,9.141642 7.41009,16.551732 16.55173,16.551732 9.14162,0 16.55171,-7.41009 16.55171,-16.551732 -0.0107,-9.136583 -7.41513,-16.541623 -16.55171,-16.551726 z m 0,8.275863 c -4.57031,0 -8.27587,3.705543 -8.27587,8.275863 h -4.13793 c 0.006,-6.85345 5.56035,-12.40672 12.4138,-12.413794 z m 0,0"
     id="path16"
     inkscape:connector-curvature="0"
     style="stroke-width:0.25862068" />
  <path
     d="m 244.96661,25.413797 h 5.35021 l -9.48815,-9.486126 v 5.348194 c 0,2.285154 1.85278,4.137932 4.13794,4.137932 z m 0,0"
     id="path18"
     inkscape:connector-curvature="0"
     style="stroke-width:0.25862068" />
  <path
     d="m 270.57814,123.43912 -13.54729,-13.54728 c -1.58102,2.49023 -3.56007,4.70567 -5.85736,6.55644 l 13.19775,13.19773 c 1.71437,1.71437 4.49354,1.71437 6.2069,0 1.71436,-1.71335 1.71436,-4.49253 0,-6.20689 z m 0,0"
     id="path20"
     inkscape:connector-curvature="0"
     style="stroke-width:0.25862068" />
</svg>
