<?xml version="1.0" encoding="UTF-8" standalone="no"?>
<!-- Generator: Adobe Illustrator 19.0.0, SVG Export Plug-In . SVG Version: 6.00 Build 0)  -->

<svg
   xmlns:dc="http://purl.org/dc/elements/1.1/"
   xmlns:cc="http://creativecommons.org/ns#"
   xmlns:rdf="http://www.w3.org/1999/02/22-rdf-syntax-ns#"
   xmlns:svg="http://www.w3.org/2000/svg"
   xmlns="http://www.w3.org/2000/svg"
   xmlns:sodipodi="http://sodipodi.sourceforge.net/DTD/sodipodi-0.dtd"
   xmlns:inkscape="http://www.inkscape.org/namespaces/inkscape"
   version="1.1"
   id="Capa_1"
   x="0px"
   y="0px"
   viewBox="0 0 512 140"
   xml:space="preserve"
   sodipodi:docname="li-platforms.svg"
   width="512"
   height="140"
   inkscape:version="0.92.4 (5da689c313, 2019-01-14)"><metadata
   id="metadata97"><rdf:RDF><cc:Work
       rdf:about=""><dc:format>image/svg+xml</dc:format><dc:type
         rdf:resource="http://purl.org/dc/dcmitype/StillImage" /><dc:title></dc:title></cc:Work></rdf:RDF></metadata><defs
   id="defs95" /><sodipodi:namedview
   pagecolor="#ffffff"
   bordercolor="#666666"
   borderopacity="1"
   objecttolerance="10"
   gridtolerance="10"
   guidetolerance="10"
   inkscape:pageopacity="0"
   inkscape:pageshadow="2"
   inkscape:window-width="1366"
   inkscape:window-height="713"
   id="namedview93"
   showgrid="false"
   inkscape:zoom="0.70710678"
   inkscape:cx="219.81551"
   inkscape:cy="100.48788"
   inkscape:window-x="0"
   inkscape:window-y="27"
   inkscape:window-maximized="1"
   inkscape:current-layer="Capa_1" />
<g
   id="g6"
   transform="matrix(0.25390625,0,0,0.25390625,191,5)">
	<g
   id="g4">
		<path
   d="M 0,0 V 370 H 166 V 482 H 87 v 30 H 512 V 0 Z M 226,482 H 196 V 370 h 30 z m 0,-142 H 30 V 290 H 226 Z M 482,482 H 372 V 302 h 110 z m 0,-210 H 342 V 482 H 256 V 152 h 226 z m 0,-150 H 226 V 260 H 30 V 30 h 452 z"
   id="path2"
   inkscape:connector-curvature="0" />
	</g>
</g>
<g
   id="g12"
   transform="matrix(0.25390625,0,0,0.25390625,191,5)">
	<g
   id="g10">
		<polygon
   points="107.578,151.15 129.778,136.9 129.778,106.6 66.178,145.3 66.178,158.5 129.778,196 129.778,164.2 "
   id="polygon8" />
	</g>
</g>
<g
   id="g18"
   transform="matrix(0.25390625,0,0,0.25390625,191,5)">
	<g
   id="g16">
		<rect
   x="148.67999"
   y="82.449997"
   width="28.5"
   height="62.549999"
   id="rect14" />
	</g>
</g>
<g
   id="g24"
   transform="matrix(0.25390625,0,0,0.25390625,191,5)">
	<g
   id="g22">
		<rect
   x="148.67999"
   y="162.39999"
   width="28.5"
   height="27.6"
   id="rect20" />
	</g>
</g>
<g
   id="g30"
   transform="matrix(0.25390625,0,0,0.25390625,191,5)">
	<g
   id="g28">
		<rect
   x="195.03"
   y="162.39999"
   width="23.1"
   height="27.6"
   id="rect26" />
	</g>
</g>
<g
   id="g36"
   transform="matrix(0.25390625,0,0,0.25390625,191,5)">
	<g
   id="g34">
		<polygon
   points="288.842,293.28 300.682,285.68 300.682,269.52 266.762,290.16 266.762,297.2 300.682,317.2 300.682,300.24 "
   id="polygon32" />
	</g>
</g>
<g
   id="g42"
   transform="matrix(0.25390625,0,0,0.25390625,191,5)">
	<g
   id="g40">
		<rect
   x="310.76001"
   y="299.28"
   width="15.2"
   height="14.72"
   id="rect38" />
	</g>
</g>
<g
   id="g48"
   transform="matrix(0.25390625,0,0,0.25390625,191,5)">
	<g
   id="g46">
		<rect
   x="310.76001"
   y="256.64001"
   width="15.2"
   height="33.360001"
   id="rect44" />
	</g>
</g>
<g
   id="g54"
   transform="matrix(0.25390625,0,0,0.25390625,191,5)">
	<g
   id="g52">
		<circle
   cx="369"
   cy="187"
   r="15"
   id="circle50" />
	</g>
</g>
<g
   id="g60"
   transform="matrix(0.25390625,0,0,0.25390625,191,5)">
	<g
   id="g58">
		<circle
   cx="427"
   cy="447"
   r="15"
   id="circle56" />
	</g>
</g>
<g
   id="g62"
   transform="translate(0,-372)">
</g>
<g
   id="g64"
   transform="translate(0,-372)">
</g>
<g
   id="g66"
   transform="translate(0,-372)">
</g>
<g
   id="g68"
   transform="translate(0,-372)">
</g>
<g
   id="g70"
   transform="translate(0,-372)">
</g>
<g
   id="g72"
   transform="translate(0,-372)">
</g>
<g
   id="g74"
   transform="translate(0,-372)">
</g>
<g
   id="g76"
   transform="translate(0,-372)">
</g>
<g
   id="g78"
   transform="translate(0,-372)">
</g>
<g
   id="g80"
   transform="translate(0,-372)">
</g>
<g
   id="g82"
   transform="translate(0,-372)">
</g>
<g
   id="g84"
   transform="translate(0,-372)">
</g>
<g
   id="g86"
   transform="translate(0,-372)">
</g>
<g
   id="g88"
   transform="translate(0,-372)">
</g>
<g
   id="g90"
   transform="translate(0,-372)">
</g>
</svg>