<?xml version="1.0" encoding="UTF-8" standalone="no"?>
<svg
   xmlns:dc="http://purl.org/dc/elements/1.1/"
   xmlns:cc="http://creativecommons.org/ns#"
   xmlns:rdf="http://www.w3.org/1999/02/22-rdf-syntax-ns#"
   xmlns:svg="http://www.w3.org/2000/svg"
   xmlns="http://www.w3.org/2000/svg"
   xmlns:sodipodi="http://sodipodi.sourceforge.net/DTD/sodipodi-0.dtd"
   xmlns:inkscape="http://www.inkscape.org/namespaces/inkscape"
   id="Layer_5"
   enable-background="new 0 0 64 64"
   height="140"
   viewBox="0 0 64 17.5"
   width="512"
   version="1.1"
   sodipodi:docname="geodatasets.svg"
   inkscape:version="0.92.4 (5da689c313, 2019-01-14)">
  <metadata
     id="metadata37">
    <rdf:RDF>
      <cc:Work
         rdf:about="">
        <dc:format>image/svg+xml</dc:format>
        <dc:type
           rdf:resource="http://purl.org/dc/dcmitype/StillImage" />
        <dc:title></dc:title>
      </cc:Work>
    </rdf:RDF>
  </metadata>
  <defs
     id="defs35" />
  <sodipodi:namedview
     pagecolor="#ffffff"
     bordercolor="#666666"
     borderopacity="1"
     objecttolerance="10"
     gridtolerance="10"
     guidetolerance="10"
     inkscape:pageopacity="0"
     inkscape:pageshadow="2"
     inkscape:window-width="1366"
     inkscape:window-height="713"
     id="namedview33"
     showgrid="false"
     inkscape:zoom="1.3037281"
     inkscape:cx="183.11428"
     inkscape:cy="128.10903"
     inkscape:window-x="0"
     inkscape:window-y="27"
     inkscape:window-maximized="1"
     inkscape:current-layer="Layer_5" />
  <g
     id="g30"
     transform="matrix(0.26209677,0,0,0.26209677,23.612903,0.36290315)">
    <path
       d="m 39,27 h 21 c 1.654,0 3,-1.346 3,-3 V 4 C 63,2.346 61.654,1 60,1 H 30 c -1.654,0 -3,1.346 -3,3 v 9.471 C 24.78,13.165 22.436,13 20,13 10.789,13 1,15.453 1,20 v 24 c 0,4.547 9.789,7 19,7 2.437,0 4.781,-0.165 7,-0.472 V 60 c 0,1.654 1.346,3 3,3 h 30 c 1.654,0 3,-1.346 3,-3 V 40 c 0,-1.654 -1.346,-3 -3,-3 H 39 Z M 29,4 c 0,-0.551 0.448,-1 1,-1 h 30 c 0.552,0 1,0.449 1,1 v 20 c 0,0.551 -0.448,1 -1,1 H 30 c -0.552,0 -1,-0.449 -1,-1 z M 27,20.405 C 25.196,20.781 22.655,21 20,21 c -4.359,0 -7.276,-0.551 -8.498,-1 1.222,-0.449 4.139,-1 8.498,-1 2.655,0 5.196,0.219 7,0.595 z M 20,15 c 2.446,0 4.791,0.171 7,0.491 v 2.07 C 25.097,17.203 22.634,17 20,17 9.793,17 9,19.296 9,20 c 0,0.704 0.793,3 11,3 2.634,0 5.097,-0.203 7,-0.561 V 24 c 0,0.171 0.023,0.337 0.051,0.5 C 24.839,24.822 22.436,25 20,25 9.468,25 3,22.088 3,20 3,17.912 9.468,15 20,15 Z m 0,34 C 9.468,49 3,46.088 3,44 V 39.261 C 6.331,41.707 13.316,43 20,43 c 2.437,0 4.781,-0.165 7,-0.472 v 5.981 C 24.791,48.829 22.446,49 20,49 Z m 41,-9 v 20 c 0,0.552 -0.448,1 -1,1 H 30 c -0.552,0 -1,-0.448 -1,-1 V 40 c 0,-0.552 0.448,-1 1,-1 h 30 c 0.552,0 1,0.448 1,1 z M 30,37 c -1.654,0 -3,1.346 -3,3 v 0.509 C 24.791,40.829 22.446,41 20,41 9.468,41 3,38.088 3,36 V 31.261 C 6.331,33.707 13.316,35 20,35 26.684,35 33.669,33.707 37,31.261 V 37 Z M 20,33 C 9.468,33 3,30.088 3,28 V 23.261 C 6.331,25.707 13.316,27 20,27 22.834,27 25.636,26.772 28.162,26.353 28.671,26.752 29.304,27 30,27 h 7 v 1 c 0,2.088 -6.468,5 -17,5 z"
       id="path2"
       inkscape:connector-curvature="0" />
    <path
       d="m 39,5 h -8 v 8 h 8 z m -2,6 H 33 V 7 h 4 z"
       id="path4"
       inkscape:connector-curvature="0" />
    <path
       d="m 49,5 h -8 v 8 h 8 z m -2,6 H 43 V 7 h 4 z"
       id="path6"
       inkscape:connector-curvature="0" />
    <path
       d="m 59,5 h -8 v 8 h 8 z m -2,6 H 53 V 7 h 4 z"
       id="path8"
       inkscape:connector-curvature="0" />
    <path
       d="m 39,15 h -8 v 8 h 8 z m -2,6 h -4 v -4 h 4 z"
       id="path10"
       inkscape:connector-curvature="0" />
    <path
       d="m 49,15 h -8 v 8 h 8 z m -2,6 h -4 v -4 h 4 z"
       id="path12"
       inkscape:connector-curvature="0" />
    <path
       d="m 59,15 h -8 v 8 h 8 z m -2,6 h -4 v -4 h 4 z"
       id="path14"
       inkscape:connector-curvature="0" />
    <path
       d="m 45,41 h -6 v 4 h -4 v 4 H 31 V 59 H 45 Z M 33,51 h 2 v 6 h -2 z m 4,6 V 47 h 2 v 10 z m 6,0 H 41 V 43 h 2 z"
       id="path16"
       inkscape:connector-curvature="0" />
    <path
       d="m 47,45 h 12 v 2 H 47 Z"
       id="path18"
       inkscape:connector-curvature="0" />
    <path
       d="m 47,41 h 12 v 2 H 47 Z"
       id="path20"
       inkscape:connector-curvature="0" />
    <path
       d="m 47,49 h 12 v 2 H 47 Z"
       id="path22"
       inkscape:connector-curvature="0" />
    <path
       d="m 57,53 h 2 v 2 h -2 z"
       id="path24"
       inkscape:connector-curvature="0" />
    <path
       d="m 47,53 h 8 v 2 h -8 z"
       id="path26"
       inkscape:connector-curvature="0" />
    <path
       d="m 47,57 h 12 v 2 H 47 Z"
       id="path28"
       inkscape:connector-curvature="0" />
  </g>
</svg>
